# xmcd
#
# Track frame offsets:
#	182
#	19872
#	39862
#	62145
#	77390
#	99152
#	119467
#	139017
#	160925
#	182205
#
# Disc length: 2652 seconds
#
# Revision: 1
# Processed by: cddbd v1.4PL0 Copyright (c) Steve Scherf et al.
# Submitted via: audiograbber 1.80
#
DISCID=750a5a0a
DTITLE=Carly Simon - Carly Simon-Spoiled Girl
DYEAR=1900
DGENRE=
TTITLE0=My New Boyfriend
TTITLE1=Come Back Home
TTITLE2=Tonight and Forever
TTITLE3=Spoiled Girl
TTITLE4=Tired of Being Blonde
TTITLE5=The Wives are in Connecticut
TTITLE6=Anyone But Me
TTITLE7=Interview
TTITLE8=Make Me Feel Something
TTITLE9=Can't Give It Up
EXTD=
EXTT0=
EXTT1=
EXTT2=
EXTT3=
EXTT4=
EXTT5=
EXTT6=
EXTT7=
EXTT8=
EXTT9=
PLAYORDER=
